<?xml version="1.0" standalone="no"?>
<!DOCTYPE svg PUBLIC "-//W3C//DTD SVG 20010904//EN"
 "http://www.w3.org/TR/2001/REC-SVG-20010904/DTD/svg10.dtd">
<svg version="1.0" xmlns="http://www.w3.org/2000/svg"
 width="900.000000pt" height="760.000000pt" viewBox="0 0 900.000000 760.000000"
 preserveAspectRatio="xMidYMid meet">

<g transform="translate(0.000000,760.000000) scale(0.100000,-0.100000)"
fill="#000000" stroke="none">
<path d="M3395 7526 c-99 -40 -234 -93 -300 -119 -115 -44 -505 -196 -610
-238 -91 -35 -614 -238 -965 -374 -190 -74 -399 -155 -465 -182 l-119 -48
-121 -160 c-66 -89 -230 -309 -365 -490 -135 -182 -289 -388 -342 -460 -54
-71 -98 -138 -98 -147 0 -10 9 -41 19 -70 10 -29 42 -127 70 -218 29 -91 60
-192 71 -225 11 -33 68 -217 129 -410 156 -501 332 -1060 334 -1061 3 -2 183
-30 662 -104 576 -88 595 -91 595 -103 0 -5 -31 -66 -69 -135 -104 -192 -153
-293 -148 -306 3 -6 49 -41 103 -78 99 -67 282 -193 499 -343 218 -151 430
-296 495 -340 l66 -43 642 92 c577 83 644 91 656 77 7 -9 31 -47 53 -86 22
-38 111 -191 197 -340 287 -490 439 -749 472 -805 39 -67 186 -319 262 -450
30 -52 86 -148 124 -213 l69 -117 383 0 c210 0 385 2 388 5 3 3 -72 241 -167
528 -95 287 -170 525 -168 529 2 4 129 -100 283 -232 153 -132 282 -240 287
-240 4 0 55 18 113 40 58 23 166 63 240 91 153 58 236 89 685 259 176 67 370
140 430 162 61 23 112 42 113 44 4 3 -14 494 -24 655 l-5 97 113 78 c62 43
133 92 158 109 25 17 88 61 140 97 52 36 232 160 400 277 168 116 309 212 313
214 4 1 1 61 -7 132 -9 72 -22 200 -30 285 -9 85 -36 358 -61 605 -26 248 -56
554 -69 681 l-22 231 -66 89 c-35 49 -245 341 -465 649 -647 906 -834 1167
-871 1217 l-35 47 -296 72 c-163 39 -487 118 -721 175 -234 57 -517 126 -630
154 -113 27 -326 79 -475 115 -741 181 -1667 405 -1669 404 0 0 -82 -33 -181
-73z m705 -355 c710 -172 935 -226 1220 -296 168 -40 352 -85 410 -99 58 -14
292 -70 520 -126 228 -55 492 -119 585 -141 94 -23 176 -43 184 -45 17 -5 10
-23 -30 -77 -36 -49 -439 -615 -619 -870 -85 -119 -131 -176 -144 -177 -16 0
-176 36 -816 184 -102 24 -385 90 -630 146 -245 57 -535 124 -645 149 l-200
46 -7 35 c-7 30 -34 253 -78 640 -6 47 -26 221 -45 386 -19 166 -35 307 -35
313 0 7 9 9 23 6 12 -3 150 -36 307 -74z m-618 -11 c3 -36 27 -238 52 -450 25
-212 60 -507 77 -656 l31 -271 -201 -301 c-111 -166 -205 -302 -211 -302 -5 0
-154 96 -332 213 -178 118 -375 247 -438 289 -63 41 -250 164 -415 272 -165
109 -387 255 -492 325 -106 69 -193 128 -193 131 0 5 124 54 695 276 116 44
282 110 370 144 88 35 232 91 320 125 155 60 283 110 565 221 74 29 142 52
150 51 11 -2 17 -21 22 -67z m-2358 -954 c79 -52 517 -340 646 -424 63 -42
198 -130 300 -197 102 -67 286 -188 410 -270 124 -81 307 -202 408 -268 l182
-120 -17 -26 c-9 -14 -226 -340 -482 -724 l-465 -698 -66 68 c-87 90 -308 321
-439 458 -58 61 -150 157 -206 215 -94 98 -858 900 -970 1018 -27 30 -51 57
-53 62 -2 5 49 80 114 167 354 477 577 773 581 773 3 0 29 -15 57 -34z m6056
-95 c0 -11 16 -179 35 -373 19 -194 40 -402 45 -463 6 -60 13 -125 16 -142 4
-27 2 -33 -14 -33 -18 0 -589 129 -664 150 -21 6 -38 16 -38 23 0 7 28 50 62
97 62 86 385 539 486 683 57 79 72 92 72 58z m407 -237 c48 -66 105 -145 126
-175 47 -66 353 -493 494 -688 57 -79 102 -146 99 -149 -3 -3 -56 7 -118 20
-303 69 -602 139 -606 143 -2 2 -24 205 -48 452 -24 246 -45 465 -48 486 -2
21 0 37 4 35 5 -2 49 -57 97 -124z m-3441 -358 c360 -83 553 -127 609 -141 33
-8 285 -66 560 -129 630 -145 729 -168 734 -172 3 -3 -72 -109 -518 -734 -123
-173 -244 -344 -269 -380 -25 -36 -48 -69 -52 -73 -7 -8 -66 29 -490 307 -523
343 -616 405 -632 418 -14 10 -22 51 -38 203 -11 105 -27 242 -35 305 -19 149
-45 387 -45 411 0 25 1 25 176 -15z m-421 -440 c14 -125 24 -230 22 -233 -7
-6 -257 159 -257 170 0 17 195 306 201 299 4 -4 19 -110 34 -236z m2898 -132
c133 -30 341 -78 462 -105 121 -28 220 -51 221 -52 1 -1 9 -76 18 -167 9 -91
21 -210 26 -265 42 -402 69 -696 63 -707 -3 -7 -54 -58 -112 -113 -58 -54
-142 -133 -186 -175 -44 -41 -159 -150 -255 -240 -96 -91 -181 -170 -188 -177
-7 -7 -17 -13 -22 -13 -5 0 -130 79 -277 177 -401 264 -685 450 -810 532 -62
41 -113 75 -113 78 0 2 134 192 297 421 163 229 346 487 407 572 172 243 207
290 217 290 6 0 119 -25 252 -56z m-3063 -339 c124 -81 228 -150 232 -154 4
-3 14 -69 22 -146 9 -77 34 -295 56 -485 48 -406 89 -766 130 -1125 17 -143
33 -281 36 -306 l6 -46 -153 -21 c-85 -12 -340 -49 -568 -82 l-414 -60 -111
76 c-477 326 -721 495 -733 507 -13 13 -2 39 87 208 84 159 197 335 633 992
292 439 536 796 542 794 5 -3 111 -71 235 -152z m-2625 -330 c302 -316 575
-602 703 -735 44 -46 66 -76 58 -78 -8 -2 -104 11 -213 28 -245 38 -435 67
-533 81 -41 6 -80 16 -86 23 -9 9 -332 1022 -351 1101 -6 23 102 -85 422 -420z
m6860 400 c204 -48 542 -125 549 -125 17 0 2 -32 -26 -55 -18 -15 -109 -100
-203 -189 -386 -365 -408 -386 -420 -386 -10 0 -19 77 -60 525 -8 83 -17 176
-21 208 -8 70 -19 69 181 22z m755 -384 c0 -6 11 -119 25 -253 14 -134 34
-333 45 -443 11 -110 32 -314 46 -453 14 -139 24 -255 23 -256 -24 -19 -810
-556 -826 -565 -21 -11 -23 -9 -23 11 -1 13 -27 286 -59 608 -32 322 -55 590
-52 596 3 7 60 62 126 125 66 62 163 153 215 203 52 49 138 131 191 180 52 50
134 128 181 174 81 77 108 95 108 73z m-4346 -108 c329 -217 620 -408 714
-470 76 -49 111 -77 106 -86 -7 -10 -195 -275 -592 -832 -63 -88 -117 -161
-121 -163 -3 -1 -17 87 -29 195 -13 109 -30 252 -38 318 -7 66 -25 219 -39
340 -29 249 -37 324 -65 550 -22 175 -23 195 -14 195 4 0 39 -21 78 -47z
m1128 -742 c24 -16 135 -89 248 -163 113 -74 291 -191 395 -260 105 -68 250
-164 324 -213 l135 -88 -60 -55 c-32 -30 -102 -96 -155 -146 -52 -50 -126
-120 -165 -156 -38 -36 -121 -114 -184 -174 -63 -61 -153 -146 -200 -190 -47
-44 -122 -116 -167 -159 l-81 -80 -59 23 c-32 13 -87 39 -123 58 -36 19 -150
80 -255 135 -104 55 -242 128 -305 161 -63 34 -145 77 -182 96 -38 19 -68 40
-68 46 0 6 66 103 148 217 81 113 188 263 237 332 50 69 97 136 105 149 73
110 354 496 360 496 5 0 28 -13 52 -29z m2132 -233 c3 -35 13 -137 21 -228 9
-91 24 -253 35 -360 24 -245 25 -264 18 -270 -6 -5 -39 16 -395 250 -128 84
-233 156 -233 160 0 4 33 38 73 76 40 38 142 134 226 214 189 179 234 220 242
220 4 0 9 -28 13 -62z m-746 -677 c24 -17 521 -344 768 -506 l91 -59 6 -101
c4 -55 10 -179 13 -275 l7 -176 -607 -227 c-333 -125 -613 -227 -621 -227 -9
0 -34 17 -58 38 -42 39 -291 253 -526 455 -69 59 -126 114 -126 122 0 7 104
111 230 231 299 282 543 514 677 642 59 56 110 102 113 102 3 0 18 -9 33 -19z
m-2004 -745 c91 -48 305 -162 506 -268 41 -22 80 -45 86 -51 6 -7 34 -82 62
-167 28 -85 109 -334 181 -553 72 -219 131 -403 131 -408 0 -6 -42 -9 -102 -7
l-102 3 -64 110 c-35 61 -119 204 -187 320 -67 116 -167 287 -222 380 -375
638 -407 695 -397 695 4 0 53 -24 108 -54z"/>
</g>
</svg>
